<mxfile host="app.diagrams.net" agent="Mozilla/5.0 (Windows NT 10.0; Win64; x64) AppleWebKit/537.36 (KHTML, like Gecko) Chrome/135.0.0.0 Safari/537.36" version="26.2.10">
  <diagram name="PÃ¡gina-1" id="-gykCJQkSSHHTdjsxvW-">
    <mxGraphModel dx="611" dy="1207" grid="1" gridSize="10" guides="1" tooltips="1" connect="1" arrows="1" fold="1" page="1" pageScale="1" pageWidth="827" pageHeight="1169" math="0" shadow="0">
      <root>
        <mxCell id="0" />
        <mxCell id="1" parent="0" />
        <mxCell id="iUoO3dWJf7c5NOuBx22D-1" value="ToDoItem" style="swimlane;fontStyle=1;align=center;verticalAlign=top;childLayout=stackLayout;horizontal=1;startSize=26;horizontalStack=0;resizeParent=1;resizeParentMax=0;resizeLast=0;collapsible=1;marginBottom=0;whiteSpace=wrap;html=1;" vertex="1" parent="1">
          <mxGeometry x="40" y="40" width="190" height="276" as="geometry" />
        </mxCell>
        <mxCell id="iUoO3dWJf7c5NOuBx22D-2" value="- name: String" style="text;strokeColor=none;fillColor=none;align=left;verticalAlign=top;spacingLeft=4;spacingRight=4;overflow=hidden;rotatable=0;points=[[0,0.5],[1,0.5]];portConstraint=eastwest;whiteSpace=wrap;html=1;" vertex="1" parent="iUoO3dWJf7c5NOuBx22D-1">
          <mxGeometry y="26" width="190" height="26" as="geometry" />
        </mxCell>
        <mxCell id="iUoO3dWJf7c5NOuBx22D-40" value="- comments: String[*]" style="text;strokeColor=none;fillColor=none;align=left;verticalAlign=top;spacingLeft=4;spacingRight=4;overflow=hidden;rotatable=0;points=[[0,0.5],[1,0.5]];portConstraint=eastwest;whiteSpace=wrap;html=1;" vertex="1" parent="iUoO3dWJf7c5NOuBx22D-1">
          <mxGeometry y="52" width="190" height="26" as="geometry" />
        </mxCell>
        <mxCell id="iUoO3dWJf7c5NOuBx22D-3" value="" style="line;strokeWidth=1;fillColor=none;align=left;verticalAlign=middle;spacingTop=-1;spacingLeft=3;spacingRight=3;rotatable=0;labelPosition=right;points=[];portConstraint=eastwest;strokeColor=inherit;" vertex="1" parent="iUoO3dWJf7c5NOuBx22D-1">
          <mxGeometry y="78" width="190" height="8" as="geometry" />
        </mxCell>
        <mxCell id="iUoO3dWJf7c5NOuBx22D-4" value="+ &amp;lt;&amp;lt;create&amp;gt;&amp;gt;ToDoItem(String name): ToDoItem" style="text;strokeColor=none;fillColor=none;align=left;verticalAlign=top;spacingLeft=4;spacingRight=4;overflow=hidden;rotatable=0;points=[[0,0.5],[1,0.5]];portConstraint=eastwest;whiteSpace=wrap;html=1;" vertex="1" parent="iUoO3dWJf7c5NOuBx22D-1">
          <mxGeometry y="86" width="190" height="40" as="geometry" />
        </mxCell>
        <mxCell id="iUoO3dWJf7c5NOuBx22D-6" value="+ start()" style="text;strokeColor=none;fillColor=none;align=left;verticalAlign=top;spacingLeft=4;spacingRight=4;overflow=hidden;rotatable=0;points=[[0,0.5],[1,0.5]];portConstraint=eastwest;whiteSpace=wrap;html=1;" vertex="1" parent="iUoO3dWJf7c5NOuBx22D-1">
          <mxGeometry y="126" width="190" height="30" as="geometry" />
        </mxCell>
        <mxCell id="iUoO3dWJf7c5NOuBx22D-8" value="+ togglePause()" style="text;strokeColor=none;fillColor=none;align=left;verticalAlign=top;spacingLeft=4;spacingRight=4;overflow=hidden;rotatable=0;points=[[0,0.5],[1,0.5]];portConstraint=eastwest;whiteSpace=wrap;html=1;" vertex="1" parent="iUoO3dWJf7c5NOuBx22D-1">
          <mxGeometry y="156" width="190" height="30" as="geometry" />
        </mxCell>
        <mxCell id="iUoO3dWJf7c5NOuBx22D-9" value="+ finish()" style="text;strokeColor=none;fillColor=none;align=left;verticalAlign=top;spacingLeft=4;spacingRight=4;overflow=hidden;rotatable=0;points=[[0,0.5],[1,0.5]];portConstraint=eastwest;whiteSpace=wrap;html=1;" vertex="1" parent="iUoO3dWJf7c5NOuBx22D-1">
          <mxGeometry y="186" width="190" height="30" as="geometry" />
        </mxCell>
        <mxCell id="iUoO3dWJf7c5NOuBx22D-7" value="+ workedTime()" style="text;strokeColor=none;fillColor=none;align=left;verticalAlign=top;spacingLeft=4;spacingRight=4;overflow=hidden;rotatable=0;points=[[0,0.5],[1,0.5]];portConstraint=eastwest;whiteSpace=wrap;html=1;" vertex="1" parent="iUoO3dWJf7c5NOuBx22D-1">
          <mxGeometry y="216" width="190" height="30" as="geometry" />
        </mxCell>
        <mxCell id="iUoO3dWJf7c5NOuBx22D-10" value="+ addComment(String comment)" style="text;strokeColor=none;fillColor=none;align=left;verticalAlign=top;spacingLeft=4;spacingRight=4;overflow=hidden;rotatable=0;points=[[0,0.5],[1,0.5]];portConstraint=eastwest;whiteSpace=wrap;html=1;" vertex="1" parent="iUoO3dWJf7c5NOuBx22D-1">
          <mxGeometry y="246" width="190" height="30" as="geometry" />
        </mxCell>
        <mxCell id="iUoO3dWJf7c5NOuBx22D-15" value="Pending" style="swimlane;fontStyle=1;align=center;verticalAlign=top;childLayout=stackLayout;horizontal=1;startSize=26;horizontalStack=0;resizeParent=1;resizeParentMax=0;resizeLast=0;collapsible=1;marginBottom=0;whiteSpace=wrap;html=1;" vertex="1" parent="1">
          <mxGeometry x="254" y="260" width="160" height="124" as="geometry" />
        </mxCell>
        <mxCell id="iUoO3dWJf7c5NOuBx22D-17" value="" style="line;strokeWidth=1;fillColor=none;align=left;verticalAlign=middle;spacingTop=-1;spacingLeft=3;spacingRight=3;rotatable=0;labelPosition=right;points=[];portConstraint=eastwest;strokeColor=inherit;" vertex="1" parent="iUoO3dWJf7c5NOuBx22D-15">
          <mxGeometry y="26" width="160" height="8" as="geometry" />
        </mxCell>
        <mxCell id="iUoO3dWJf7c5NOuBx22D-46" value="+ start()" style="text;strokeColor=none;fillColor=none;align=left;verticalAlign=top;spacingLeft=4;spacingRight=4;overflow=hidden;rotatable=0;points=[[0,0.5],[1,0.5]];portConstraint=eastwest;whiteSpace=wrap;html=1;" vertex="1" parent="iUoO3dWJf7c5NOuBx22D-15">
          <mxGeometry y="34" width="160" height="30" as="geometry" />
        </mxCell>
        <mxCell id="iUoO3dWJf7c5NOuBx22D-49" value="+ workedTime()" style="text;strokeColor=none;fillColor=none;align=left;verticalAlign=top;spacingLeft=4;spacingRight=4;overflow=hidden;rotatable=0;points=[[0,0.5],[1,0.5]];portConstraint=eastwest;whiteSpace=wrap;html=1;" vertex="1" parent="iUoO3dWJf7c5NOuBx22D-15">
          <mxGeometry y="64" width="160" height="30" as="geometry" />
        </mxCell>
        <mxCell id="iUoO3dWJf7c5NOuBx22D-48" value="+ finish()" style="text;strokeColor=none;fillColor=none;align=left;verticalAlign=top;spacingLeft=4;spacingRight=4;overflow=hidden;rotatable=0;points=[[0,0.5],[1,0.5]];portConstraint=eastwest;whiteSpace=wrap;html=1;" vertex="1" parent="iUoO3dWJf7c5NOuBx22D-15">
          <mxGeometry y="94" width="160" height="30" as="geometry" />
        </mxCell>
        <mxCell id="iUoO3dWJf7c5NOuBx22D-19" value="InProgress" style="swimlane;fontStyle=1;align=center;verticalAlign=top;childLayout=stackLayout;horizontal=1;startSize=26;horizontalStack=0;resizeParent=1;resizeParentMax=0;resizeLast=0;collapsible=1;marginBottom=0;whiteSpace=wrap;html=1;" vertex="1" parent="1">
          <mxGeometry x="360" y="450" width="160" height="94" as="geometry" />
        </mxCell>
        <mxCell id="iUoO3dWJf7c5NOuBx22D-21" value="" style="line;strokeWidth=1;fillColor=none;align=left;verticalAlign=middle;spacingTop=-1;spacingLeft=3;spacingRight=3;rotatable=0;labelPosition=right;points=[];portConstraint=eastwest;strokeColor=inherit;" vertex="1" parent="iUoO3dWJf7c5NOuBx22D-19">
          <mxGeometry y="26" width="160" height="8" as="geometry" />
        </mxCell>
        <mxCell id="iUoO3dWJf7c5NOuBx22D-58" value="+ finish()" style="text;strokeColor=none;fillColor=none;align=left;verticalAlign=top;spacingLeft=4;spacingRight=4;overflow=hidden;rotatable=0;points=[[0,0.5],[1,0.5]];portConstraint=eastwest;whiteSpace=wrap;html=1;" vertex="1" parent="iUoO3dWJf7c5NOuBx22D-19">
          <mxGeometry y="34" width="160" height="30" as="geometry" />
        </mxCell>
        <mxCell id="iUoO3dWJf7c5NOuBx22D-57" value="+ togglePause()" style="text;strokeColor=none;fillColor=none;align=left;verticalAlign=top;spacingLeft=4;spacingRight=4;overflow=hidden;rotatable=0;points=[[0,0.5],[1,0.5]];portConstraint=eastwest;whiteSpace=wrap;html=1;" vertex="1" parent="iUoO3dWJf7c5NOuBx22D-19">
          <mxGeometry y="64" width="160" height="30" as="geometry" />
        </mxCell>
        <mxCell id="iUoO3dWJf7c5NOuBx22D-23" value="Paused" style="swimlane;fontStyle=1;align=center;verticalAlign=top;childLayout=stackLayout;horizontal=1;startSize=26;horizontalStack=0;resizeParent=1;resizeParentMax=0;resizeLast=0;collapsible=1;marginBottom=0;whiteSpace=wrap;html=1;" vertex="1" parent="1">
          <mxGeometry x="560" y="450" width="160" height="94" as="geometry" />
        </mxCell>
        <mxCell id="iUoO3dWJf7c5NOuBx22D-25" value="" style="line;strokeWidth=1;fillColor=none;align=left;verticalAlign=middle;spacingTop=-1;spacingLeft=3;spacingRight=3;rotatable=0;labelPosition=right;points=[];portConstraint=eastwest;strokeColor=inherit;" vertex="1" parent="iUoO3dWJf7c5NOuBx22D-23">
          <mxGeometry y="26" width="160" height="8" as="geometry" />
        </mxCell>
        <mxCell id="iUoO3dWJf7c5NOuBx22D-63" value="+ finish()" style="text;strokeColor=none;fillColor=none;align=left;verticalAlign=top;spacingLeft=4;spacingRight=4;overflow=hidden;rotatable=0;points=[[0,0.5],[1,0.5]];portConstraint=eastwest;whiteSpace=wrap;html=1;" vertex="1" parent="iUoO3dWJf7c5NOuBx22D-23">
          <mxGeometry y="34" width="160" height="30" as="geometry" />
        </mxCell>
        <mxCell id="iUoO3dWJf7c5NOuBx22D-62" value="+ togglePause()" style="text;strokeColor=none;fillColor=none;align=left;verticalAlign=top;spacingLeft=4;spacingRight=4;overflow=hidden;rotatable=0;points=[[0,0.5],[1,0.5]];portConstraint=eastwest;whiteSpace=wrap;html=1;" vertex="1" parent="iUoO3dWJf7c5NOuBx22D-23">
          <mxGeometry y="64" width="160" height="30" as="geometry" />
        </mxCell>
        <mxCell id="iUoO3dWJf7c5NOuBx22D-27" value="Finished" style="swimlane;fontStyle=1;align=center;verticalAlign=top;childLayout=stackLayout;horizontal=1;startSize=26;horizontalStack=0;resizeParent=1;resizeParentMax=0;resizeLast=0;collapsible=1;marginBottom=0;whiteSpace=wrap;html=1;" vertex="1" parent="1">
          <mxGeometry x="650" y="250" width="160" height="94" as="geometry" />
        </mxCell>
        <mxCell id="iUoO3dWJf7c5NOuBx22D-29" value="" style="line;strokeWidth=1;fillColor=none;align=left;verticalAlign=middle;spacingTop=-1;spacingLeft=3;spacingRight=3;rotatable=0;labelPosition=right;points=[];portConstraint=eastwest;strokeColor=inherit;" vertex="1" parent="iUoO3dWJf7c5NOuBx22D-27">
          <mxGeometry y="26" width="160" height="8" as="geometry" />
        </mxCell>
        <mxCell id="iUoO3dWJf7c5NOuBx22D-68" value="+ workedTime()" style="text;strokeColor=none;fillColor=none;align=left;verticalAlign=top;spacingLeft=4;spacingRight=4;overflow=hidden;rotatable=0;points=[[0,0.5],[1,0.5]];portConstraint=eastwest;whiteSpace=wrap;html=1;" vertex="1" parent="iUoO3dWJf7c5NOuBx22D-27">
          <mxGeometry y="34" width="160" height="30" as="geometry" />
        </mxCell>
        <mxCell id="iUoO3dWJf7c5NOuBx22D-69" value="+ finish()" style="text;strokeColor=none;fillColor=none;align=left;verticalAlign=top;spacingLeft=4;spacingRight=4;overflow=hidden;rotatable=0;points=[[0,0.5],[1,0.5]];portConstraint=eastwest;whiteSpace=wrap;html=1;" vertex="1" parent="iUoO3dWJf7c5NOuBx22D-27">
          <mxGeometry y="64" width="160" height="30" as="geometry" />
        </mxCell>
        <mxCell id="iUoO3dWJf7c5NOuBx22D-31" value="Status" style="swimlane;fontStyle=1;align=center;verticalAlign=top;childLayout=stackLayout;horizontal=1;startSize=26;horizontalStack=0;resizeParent=1;resizeParentMax=0;resizeLast=0;collapsible=1;marginBottom=0;whiteSpace=wrap;html=1;" vertex="1" parent="1">
          <mxGeometry x="450" y="96" width="160" height="154" as="geometry" />
        </mxCell>
        <mxCell id="iUoO3dWJf7c5NOuBx22D-33" value="" style="line;strokeWidth=1;fillColor=none;align=left;verticalAlign=middle;spacingTop=-1;spacingLeft=3;spacingRight=3;rotatable=0;labelPosition=right;points=[];portConstraint=eastwest;strokeColor=inherit;" vertex="1" parent="iUoO3dWJf7c5NOuBx22D-31">
          <mxGeometry y="26" width="160" height="8" as="geometry" />
        </mxCell>
        <mxCell id="iUoO3dWJf7c5NOuBx22D-41" value="+ start()" style="text;strokeColor=none;fillColor=none;align=left;verticalAlign=top;spacingLeft=4;spacingRight=4;overflow=hidden;rotatable=0;points=[[0,0.5],[1,0.5]];portConstraint=eastwest;whiteSpace=wrap;html=1;" vertex="1" parent="iUoO3dWJf7c5NOuBx22D-31">
          <mxGeometry y="34" width="160" height="30" as="geometry" />
        </mxCell>
        <mxCell id="iUoO3dWJf7c5NOuBx22D-44" value="+ workedTime()" style="text;strokeColor=none;fillColor=none;align=left;verticalAlign=top;spacingLeft=4;spacingRight=4;overflow=hidden;rotatable=0;points=[[0,0.5],[1,0.5]];portConstraint=eastwest;whiteSpace=wrap;html=1;" vertex="1" parent="iUoO3dWJf7c5NOuBx22D-31">
          <mxGeometry y="64" width="160" height="30" as="geometry" />
        </mxCell>
        <mxCell id="iUoO3dWJf7c5NOuBx22D-43" value="+ finish()" style="text;strokeColor=none;fillColor=none;align=left;verticalAlign=top;spacingLeft=4;spacingRight=4;overflow=hidden;rotatable=0;points=[[0,0.5],[1,0.5]];portConstraint=eastwest;whiteSpace=wrap;html=1;" vertex="1" parent="iUoO3dWJf7c5NOuBx22D-31">
          <mxGeometry y="94" width="160" height="30" as="geometry" />
        </mxCell>
        <mxCell id="iUoO3dWJf7c5NOuBx22D-42" value="+ togglePause()" style="text;strokeColor=none;fillColor=none;align=left;verticalAlign=top;spacingLeft=4;spacingRight=4;overflow=hidden;rotatable=0;points=[[0,0.5],[1,0.5]];portConstraint=eastwest;whiteSpace=wrap;html=1;" vertex="1" parent="iUoO3dWJf7c5NOuBx22D-31">
          <mxGeometry y="124" width="160" height="30" as="geometry" />
        </mxCell>
        <mxCell id="iUoO3dWJf7c5NOuBx22D-35" value="status" style="html=1;verticalAlign=bottom;endArrow=block;curved=0;rounded=0;" edge="1" parent="1" source="iUoO3dWJf7c5NOuBx22D-1" target="iUoO3dWJf7c5NOuBx22D-31">
          <mxGeometry width="80" relative="1" as="geometry">
            <mxPoint x="370" y="180" as="sourcePoint" />
            <mxPoint x="450" y="180" as="targetPoint" />
          </mxGeometry>
        </mxCell>
        <mxCell id="iUoO3dWJf7c5NOuBx22D-36" value="" style="endArrow=block;endSize=16;endFill=0;html=1;rounded=0;" edge="1" parent="1" source="iUoO3dWJf7c5NOuBx22D-15" target="iUoO3dWJf7c5NOuBx22D-31">
          <mxGeometry width="160" relative="1" as="geometry">
            <mxPoint x="55" y="470" as="sourcePoint" />
            <mxPoint x="215" y="470" as="targetPoint" />
          </mxGeometry>
        </mxCell>
        <mxCell id="iUoO3dWJf7c5NOuBx22D-37" value="" style="endArrow=block;endSize=16;endFill=0;html=1;rounded=0;" edge="1" parent="1" source="iUoO3dWJf7c5NOuBx22D-27" target="iUoO3dWJf7c5NOuBx22D-31">
          <mxGeometry width="160" relative="1" as="geometry">
            <mxPoint x="65" y="480" as="sourcePoint" />
            <mxPoint x="225" y="480" as="targetPoint" />
          </mxGeometry>
        </mxCell>
        <mxCell id="iUoO3dWJf7c5NOuBx22D-38" value="" style="endArrow=block;endSize=16;endFill=0;html=1;rounded=0;" edge="1" parent="1" source="iUoO3dWJf7c5NOuBx22D-23" target="iUoO3dWJf7c5NOuBx22D-31">
          <mxGeometry width="160" relative="1" as="geometry">
            <mxPoint x="75" y="490" as="sourcePoint" />
            <mxPoint x="235" y="490" as="targetPoint" />
          </mxGeometry>
        </mxCell>
        <mxCell id="iUoO3dWJf7c5NOuBx22D-39" value="" style="endArrow=block;endSize=16;endFill=0;html=1;rounded=0;" edge="1" parent="1" source="iUoO3dWJf7c5NOuBx22D-19" target="iUoO3dWJf7c5NOuBx22D-31">
          <mxGeometry width="160" relative="1" as="geometry">
            <mxPoint x="85" y="500" as="sourcePoint" />
            <mxPoint x="245" y="500" as="targetPoint" />
          </mxGeometry>
        </mxCell>
      </root>
    </mxGraphModel>
  </diagram>
</mxfile>
